<svg height="500" width="700" xmlns="http://www.w3.org/2000/svg" xmlns:xlink="http://www.w3.org/1999/xlink" viewBox="0 0 897 1160">
  <g class= "g_to_interact" id="head" opacity="0.76" style="isolation: isolate">
    <path d="M551,424c14-.14,24.36-.25,37,3,2.14,3.1,6.7,5.38,8,9,1.59,4.45-2,11.29,2,12,16.52,3,18,3,48,8,6.91,1.16,16,3.54,22,7,2.09,1.2,4.72,2.88,7,4,5,.67,10,3.33,15,4,5.37,1.92,12,5.58,17,8,4.4,2.11,7.87,3.65,12,6a84,84,0,0,0,9,4c3.37,1.37,7.08,4.33,10,6,53,30.26,85.11,69.42,107,131,.33,3.33.67,6.67,1,10,6.09,22.72,8,49.65,14,74,1.61,24.5,0,46,0,69,0,20.25-.71,43.52-2,63-.77,11.59.18,27-2,36-.69,2.86-.85,8.67-1,10-1.15,9.92-4.08,15.78-7,20-5.35,7.74-11.26,5-24,7-18.13,2.79-27.83,2.42-45,3H757c-15.46-3.75-29-6.24-35-8-2.61.89-1.74,0-5-1-3.87-1.24-6.24-1.46-14,0-7.18,1.35-21,5.16-31,3-49-10.62-76.91-14.31-119-28-35.81-11.64-90.05-22.06-127-32-8.66-2.33-14.61.27-23-2-3-.82-10-3.18-13-4-3.67,0-7.33-1-11-1-3.86-1.07-8.86-.93-12-2a25.58,25.58,0,0,0-13-1c-1.23.27-13.92-2.18-17-3l-7-1c-3.67,0-5.33-1-9-1-3-1-8.62-2-12-3-4.67,0-16.33-1-21-1-35.67-4.54-57.6-9.66-92,0,2.24-1.41,2-2.33,2-3,.53-7.72,3.3-34,5-40,2-7.12,3.15-18.65,5-26V744c5.3-20.91,6.77-44.87,12-64,9.31-34,15.2-66.62,31-94,32.22-55.82,84.37-95.48,152-116h7c11.52-3.25,27.18-6.8,39-10h13c21.27-5.66,47.81-7,75-9,.33-1-1.33-1-1-2-2.78-3.68-2.06-11.21-1-16,2.47-1.54,4.55-4.73,7-6C545.23,425.32,548.46,426,551,424Z" fill-rule="evenodd"/>
  </g>
  <g class= "g_to_interact" id="cap" opacity="0.74" style="isolation: isolate">
    <path d="M211,828c8.23-.13,9.45-.27,21,0,12.89.31,29.74-.54,40,2,13.55,3.36,23.64,2.8,37,4,4.74.43,23.25,3.45,31,5,3.35.67,2.29.86,15,2,3,.27,8.71-.72,14,1,3.67,1.19,15.65,2.87,20,4,18.79,4.89,20.54,2.86,41,6,13.64,2.1,34.81,6.46,48,10,6.67,1,13.33,4,20,5,9.29,4,21.86,6.91,32,10l12,2c24,10.29,54.16,16,80,23,13.19,3.55,24.41,2.45,38,6,3,.79,14.88,3.93,18,4,15,.31,17.76-2,26-4,8-2,20.32,1.68,27,3,.65,1.87-2,3.91-2,7-4.27,2.86-6.46,7.45-10,11-8.24,8.26-7.25,8.31-15,17-5.16,5.79-20.32,18.8-26,24-9.17,8.4-19.54,14.88-29,23-20.38,17.5-41.44,38.23-65,52-14.11,8.25-30.71,13.38-46,20-6.57,2.85-12.31,1.06-20,3-29.63,7.46-79.05,6-105-3-14-4.87-24.62-7-38-13-14.59-6.55-34.69-14.19-49-21-8.17-3.89-16.09-4.46-24-8-34.06-15.25-70.47-27-109-37-6,0-15-2-21-2-26.11-6-56.85-1.39-84,7l-20,4c-4.59,1.66-11.9,4.56-15,8-1.32,1.46-1.36,6-3,7H36c-1-.8-.27-.35-2-1-1.71-2.73-2.54-2.5-3-7-.83-1.66-.24-2.59,0-6,7.1-4.79,12-13,18-19s13.47-10.19,20-16c1-.86,1.06-3.07,2-4,4.36-4.32,9.66-7.66,14-12,2.29-2.29,3.62-5.82,6-8,2.88-2.63,7.06-3.39,10-6,2.39-2.13,3.72-5.72,6-8,9.67-9.67,20.33-18.33,30-28,4.95-5,8.84-11.28,14-16,2.88-2.63,7.06-3.39,10-6,3.09-2.76,5.06-7.06,8-10s7.24-4.91,10-8c7.63-8.57,13.09-15.29,18-24C203.16,829.64,203,831.05,211,828Z" fill-rule="evenodd"/>
  </g>
  <g id="shadow">
    <image id="shadow_Image" data-name="shadow Image" width="842" height="666" transform="translate(25 416.08)" xlink:href="assets/cap03.png"/>
  </g>
</svg>
